<?xml version="1.0" encoding="utf-8"?>
<!-- Generator: Adobe Illustrator 27.2.0, SVG Export Plug-In . SVG Version: 6.00 Build 0)  -->
<svg version="1.1" id="Calque_1" xmlns="http://www.w3.org/2000/svg" xmlns:xlink="http://www.w3.org/1999/xlink" x="0px" y="0px"
	 viewBox="0 0 1080 1080" style="enable-background:new 0 0 1080 1080;" xml:space="preserve">

<g>
	<path class="st0" d="M716,540.2c0,23.3,0,46.7,0,70c-0.1,46.6-26.9,85.1-70.9,100.1c-10.7,3.6-22.5,5.3-33.8,5.5
		c-47.5,0.6-95,0.4-142.5,0.2c-50.1-0.1-91.3-32.9-102.4-81.7c-1.8-7.7-2.4-15.9-2.4-23.8c-0.2-47-0.2-94-0.1-141
		c0.1-50.5,32.5-91.6,81.6-103c7.7-1.8,15.8-2.4,23.8-2.4c47-0.2,94-0.2,141-0.1c50.6,0.1,91.5,32.3,103.1,81.5
		c1.8,7.9,2.4,16.2,2.5,24.3C716.2,493.2,716,516.7,716,540.2z M684,540.4c0-23.5,0.1-47-0.1-70.5c0-5.8-0.4-11.7-1.6-17.4
		c-7.6-34.1-35.7-56.6-70.9-56.7c-47.7-0.1-95.3-0.1-143,0c-5.3,0-10.7,0.5-15.9,1.6c-34,7.6-56.6,35.7-56.7,70.9
		c-0.1,47.7-0.1,95.3,0,143c0,5.3,0.5,10.7,1.6,15.9c7.6,34,35.7,56.6,70.9,56.7c47.7,0.1,95.3,0.1,143,0c5.3,0,10.7-0.5,15.9-1.6
		c33.9-7.5,56.4-35.6,56.7-70.4C684.1,588.1,684,564.3,684,540.4z"/>
	<path class="st0" d="M635.9,540c0,52.8-43.5,96.1-96.2,96c-52.8-0.1-96.1-43.6-95.8-96.3c0.2-52.6,43.3-95.7,95.9-95.7
		C592.6,443.8,636,487.2,635.9,540z M603.9,539.8c-0.1-35.3-28.6-63.8-63.9-63.8c-35.5,0-64.2,28.7-64.1,64.2
		c0.1,35.3,28.6,63.8,63.9,63.8C575.4,604,604,575.3,603.9,539.8z"/>
	<path class="st0" d="M648.9,445.3c0.1,8-6.6,14.7-14.6,14.6c-7.8-0.1-14.3-6.5-14.3-14.4c-0.1-8,6.6-14.7,14.6-14.6
		C642.4,431,648.9,437.4,648.9,445.3z"/>
</g>
</svg>
