<?xml version="1.0" encoding="UTF-8"?>
<svg width="408px" height="101px" viewBox="0 0 408 101" version="1.1" xmlns="http://www.w3.org/2000/svg" xmlns:xlink="http://www.w3.org/1999/xlink">
    <title>Group 3 Copy 2</title>
    <defs>
        <polygon id="path-1" points="0 0 408 0 408 101 0 101"></polygon>
    </defs>
    <g id="Page-1" stroke="none" stroke-width="1" fill="none" fill-rule="evenodd">
        <g id="homepage-burger-" transform="translate(-141.000000, -9424.000000)">
            <g id="footer-copy" transform="translate(0.000000, 9200.000000)">
                <g id="Group-3-Copy-2" transform="translate(141.000000, 224.000000)">
                    <mask id="mask-2" fill="white">
                        <use xlink:href="#path-1"></use>
                    </mask>
                    <g id="Clip-2"></g>
                    <path d="M0,98.8512542 L65.483902,98.8512542 L67.6895723,81.1399979 L20.7333013,81.1399979 L20.7333013,0 L0,0 L0,98.8512542 Z M119.743393,76.2608639 C118.370975,82.7013208 113.81259,85.9703405 106.117251,85.9703405 C100.578568,85.9703405 96.3632869,84.311435 93.6184527,81.0424152 C90.8246036,77.7733954 89.3541567,73.2358009 89.1580971,67.4296314 L139.496396,67.4296314 L139.496396,59.6718084 C139.496396,48.8889224 136.702547,40.3016466 131.065834,33.9099811 C125.478136,27.5183156 117.096588,24.3468785 105.970207,24.3468785 C100.578568,24.3468785 95.6770783,25.2251226 91.2167227,26.8840282 C86.7563671,28.5917251 82.9332052,31.1288747 79.7472369,34.4466858 C76.5612686,37.7644969 74.0615089,41.8141781 72.2969726,46.5469381 C70.5324363,51.279698 69.6501682,56.744328 69.6501682,62.7944542 C69.6501682,74.9922891 72.6890918,84.4090176 78.766939,91.0446398 C84.8447862,97.680262 93.912542,100.998073 105.970207,100.998073 C115.969246,100.998073 123.615569,98.9000455 128.860163,94.7039903 C134.104757,90.5079351 137.339741,84.3602263 138.663143,76.2120726 L119.743393,76.2120726 L119.743393,76.2608639 Z M89.4521864,54.6950918 C89.5502162,52.4994815 89.9423354,50.4502452 90.7265738,48.547383 C91.4617972,46.6445207 92.49111,44.9856152 93.8635272,43.5706663 C95.1869294,42.1557175 96.8534358,41.0335167 98.8140317,40.1552726 C100.774628,39.3258198 103.029313,38.8866977 105.627102,38.8866977 C110.822681,38.8866977 114.645843,40.2528552 117.096588,43.0339616 C119.547333,45.815068 120.772705,49.6695838 120.772705,54.6463004 L89.4521864,54.6463004 L89.4521864,54.6950918 Z M191.648246,98.8512542 L210.028832,98.8512542 L210.028832,53.1825603 C210.028832,48.7425483 209.489668,44.7416585 208.411341,41.228682 C207.333013,37.6669142 205.617492,34.6418512 203.264777,32.1534928 C200.912062,29.6651345 197.775108,27.7622723 193.853916,26.3961148 C189.98174,25.0787486 185.227295,24.3956698 179.688611,24.3956698 C170.620855,24.3956698 163.366651,26.1033667 157.975012,29.4699692 C152.583373,32.8365716 149.25036,38.3012016 147.975973,45.8638593 L165.768381,47.5227648 C166.895723,41.7165954 171.307064,38.789115 179.002403,38.789115 C182.335416,38.789115 185.227295,39.6185678 187.678039,41.2774734 C190.128784,42.9363789 191.354157,45.961442 191.354157,50.4014539 L191.354157,54.012013 L182.041326,54.4511351 C177.384911,54.6463004 172.826526,55.0854225 168.36617,55.8172926 C163.8568,56.5491627 159.837578,57.8177375 156.210476,59.5742257 C152.583373,61.330714 149.691494,63.770281 147.436809,66.8929267 C145.231139,70.0155724 144.103796,74.114045 144.103796,79.0907616 C144.103796,82.8964861 144.74099,86.1167145 146.064392,88.8490296 C147.338779,91.5813446 149.103316,93.8257462 151.259971,95.5822344 C153.416627,97.3387227 155.965401,98.6072975 158.906295,99.4367503 C161.847189,100.266203 164.886112,100.705325 168.170111,100.705325 C173.806824,100.705325 178.414224,99.680707 181.992311,97.680262 C185.570399,95.6310258 188.805382,93.0450848 191.648246,89.776065 L191.648246,98.8512542 Z M191.256127,70.3083205 C191.256127,73.2845922 190.716963,75.7241592 189.58962,77.7246041 C188.462278,79.725049 187.040846,81.3351632 185.276309,82.6525294 C182.139356,84.9457224 178.022105,86.1167145 173.022585,86.1167145 C170.032677,86.1167145 167.728976,85.4336358 166.06247,84.0186869 C164.395963,82.6525294 163.56271,80.7496672 163.56271,78.3588915 C163.56271,76.7975687 163.807785,75.3826198 164.248919,74.0652536 C164.690053,72.7966788 165.621336,71.6256866 166.944738,70.6498599 C168.26814,69.6740331 170.228736,68.8933716 172.728496,68.2102929 C175.228256,67.5760055 178.512254,67.1368834 182.58049,66.941718 L191.207112,66.502596 L191.207112,70.3083205 L191.256127,70.3083205 Z M221.008169,98.8512542 L240.467083,98.8512542 L240.467083,55.3781705 C240.467083,53.2801429 240.859202,51.279698 241.643441,49.4744184 C242.427679,47.6691389 243.456992,46.107816 244.780394,44.8392412 C246.348871,43.2779183 247.966362,42.1557175 249.583854,41.5214301 C251.201346,40.8871427 253.014897,40.5456033 254.926478,40.5456033 C256.15185,40.5456033 257.279193,40.7407686 258.406535,41.082308 C259.533878,41.4726387 260.465161,42.1069261 261.249399,43.0339616 C262.033638,43.9609971 262.670831,45.2295719 263.111965,46.8396861 C263.553099,48.4498003 263.798174,50.5478279 263.798174,53.1337689 L263.798174,98.8512542 L283.257088,98.8512542 L283.257088,54.5487178 C283.257088,52.6946469 283.649207,50.9381586 284.433445,49.2792531 C285.217684,47.6203475 286.246997,46.1566073 287.570399,44.8392412 C289.138876,43.2779183 290.756367,42.1557175 292.373859,41.5214301 C293.99135,40.8871427 295.804901,40.5456033 297.716482,40.5456033 C298.941855,40.5456033 300.069198,40.7407686 301.19654,41.082308 C302.323883,41.4726387 303.255166,42.1069261 304.039404,43.0339616 C304.823642,43.9609971 305.460836,45.2295719 305.90197,46.8396861 C306.343104,48.4498003 306.588179,50.5478279 306.588179,53.1337689 L306.588179,98.8512542 L326.047093,98.8512542 L326.047093,50.5478279 C326.047093,41.3262647 324.184527,34.6418512 320.41038,30.5433786 C316.636233,26.4449061 310.999519,24.3956698 303.50024,24.3956698 C299.039885,24.3956698 294.971648,25.3714966 291.246516,27.3231502 C287.521384,29.2748038 283.992311,32.4462409 280.659298,36.8862528 C279.286881,32.8365716 276.885151,29.7139259 273.552138,27.6158983 C270.219125,25.5178707 265.905815,24.4444612 260.612206,24.4444612 C256.641999,24.4444612 252.818837,25.420288 249.191735,27.3719416 C245.564632,29.3235951 242.427679,32.2998669 239.73186,36.3495481 L239.73186,26.5912801 L220.81211,26.5912801 L220.81211,98.8512542 L221.008169,98.8512542 Z M386.48246,98.4121321 C391.040846,96.6556439 394.913023,94.1184942 398.098991,90.8006831 C401.284959,87.482872 403.735704,83.4331909 405.451225,78.7004309 C407.166747,73.967671 408,68.5518322 408,62.5504975 C408,56.6467454 407.166747,51.3284893 405.50024,46.5469381 C403.833734,41.8141781 401.382989,37.7644969 398.197021,34.4954772 C395.011052,31.2264574 391.138876,28.6893077 386.58049,26.9328195 C382.022105,25.1763313 376.924556,24.2980872 371.287842,24.2980872 C365.749159,24.2980872 360.65161,25.1763313 356.142239,26.9328195 C351.583854,28.6893077 347.711677,31.2264574 344.525709,34.4954772 C341.339741,37.7644969 338.888996,41.7653868 337.173474,46.5469381 C335.457953,51.279698 334.6247,56.6467454 334.6247,62.5504975 C334.6247,74.8947064 337.810668,84.4090176 344.231619,91.0446398 C350.652571,97.680262 359.671312,100.998073 371.336857,100.998073 C376.875541,101.046864 381.97309,100.16862 386.48246,98.4121321 L386.48246,98.4121321 Z M358.838059,79.6762577 C356.142239,75.7729505 354.818837,70.0643638 354.818837,62.5992888 C354.818837,55.2317965 356.191254,49.5720011 358.936088,45.7174853 C361.680923,41.8629694 365.798174,39.9113159 371.385872,39.9113159 C376.924556,39.9113159 381.090822,41.8629694 383.835656,45.7174853 C386.58049,49.5720011 387.952907,55.2317965 387.952907,62.5992888 C387.952907,69.9667811 386.58049,75.6753678 383.835656,79.6274664 C381.090822,83.5795649 376.97357,85.5800098 371.385872,85.5800098 C365.700144,85.5312185 361.484863,83.5795649 358.838059,79.6762577 L358.838059,79.6762577 Z" id="Fill-1" fill="#FFFFFF" mask="url(#mask-2)"></path>
                </g>
            </g>
        </g>
    </g>
</svg>