<?xml version="1.0" encoding="UTF-8"?>
<svg width="218px" height="55px" viewBox="0 0 218 55" version="1.1" xmlns="http://www.w3.org/2000/svg" xmlns:xlink="http://www.w3.org/1999/xlink">
    <title>logo-alterfood-color</title>
    <g id="Page-1" stroke="none" stroke-width="1" fill="none" fill-rule="evenodd">
        <g id="homepage-burger-" transform="translate(-846.000000, -9720.000000)" fill-rule="nonzero">
            <g id="logo-alterfood-color" transform="translate(846.000000, 9720.000000)">
                <g id="Group">
                    <path d="M17.3,25.8 L8.3,25.8 L6.4,32.3 L1.42108547e-14,32.3 L10.2,0.3 L15.3,0.3 L25.5,32.3 L19.1,32.3 L17.3,25.8 Z M15.9,20.7 L12.9,9.9 L9.9,20.7 L15.9,20.7 Z" id="Shape" fill="#2F6BF2"></path>
                    <path d="M51.4,28.7 C49.9,30.8 47.1,32.7 43.4,32.7 C36.9,32.7 33.5,28.8 33.5,21.2 L33.5,5.8 L23.3,5.8 L23.3,0.4 L39.4,0.4 L39.4,21.8 C39.4,25.6 40.9,27.3 43.3,27.3 C44.9,27.3 45.9,26.6 46.7,25.5 L51.4,28.7 Z" id="Path" fill="#FF223D"></path>
                    <path d="M60.5,16 L60.5,23.5 C60.5,27.6 65.1,28 67.8,26.6 L70,31.1 C68.5,32.1 66.8,32.7 63.6,32.7 C57.9,32.7 54.7,28.5 54.7,23.2 L54.7,16 L48.9,16 L48.9,10.5 L54.7,10.5 L54.7,2.9 L60.5,1.1 L60.5,10.6 L70,10.6 L70,16 L60.5,16 Z" id="Path" fill="#2F6BF2"></path>
                    <path d="M94.6,23.6 L79.8,23.6 C80.4,25.7 82.1,27.2 84.9,27.2 C86.9,27.2 88.6,26.2 89.6,25.2 L93.4,28.7 C91.7,31.1 88.2,32.7 84.9,32.7 C78.1,32.7 73.8,27.7 73.8,21.4 C73.8,15.1 77.8,10.1 84.7,10.1 C88.7,10.1 94.9,12.5 94.9,21 C94.8,21.9 94.7,22.7 94.6,23.6 Z M79.7,19.3 L89,19.3 C88.8,17.5 87.3,15.7 84.5,15.7 C81.8,15.6 80.3,17.1 79.7,19.3 Z" id="Shape" fill="#2F6BF2"></path>
                    <path d="M119.2,14.6 L113.9,17.9 C113.1,16.4 112.1,15.8 110.7,15.8 C108.1,15.8 106.1,19.3 106.1,23.4 L106.1,32.3 L100.3,32.3 L100.3,10.6 L106.1,10.6 L106.1,14.5 C107.2,12 109.7,10.2 112.5,10.2 C115.5,10.2 117.7,11.8 119.2,14.6 Z" id="Path" fill="#2F6BF2"></path>
                    <path d="M128.2,10.6 L128.2,9.5 C128.2,4.2 131.4,0 137.1,0 C140.3,0 142,0.6 143.5,1.6 L141.3,6.1 C138.7,4.7 134,5.1 134,9.2 L134,10.5 L143.5,10.5 L143.5,16 L134,16 L134,32.4 L128.2,32.4 L128.2,16 L123.1,16 L123.1,10.5 L128.2,10.5 L128.2,10.6 Z" id="Path" fill="#2F6BF2"></path>
                    <path d="M168.1,21.5 C168.1,27.7 163.3,32.8 157.2,32.8 C150.7,32.8 146.3,27.8 146.3,21.5 C146.3,15.2 150.5,10.2 157.2,10.2 C163.3,10.2 168.1,15.2 168.1,21.5 Z M162.3,21.5 C162.3,18.3 160.1,15.7 157.2,15.7 C154.3,15.7 152.1,18.3 152.1,21.5 C152.1,24.7 154.3,27.3 157.2,27.3 C160.1,27.3 162.3,24.7 162.3,21.5 Z" id="Shape" fill="#2F6BF2"></path>
                    <path d="M193.1,21.5 C193.1,27.7 188.3,32.8 182.2,32.8 C175.7,32.8 171.3,27.8 171.3,21.5 C171.3,15.2 175.5,10.2 182.2,10.2 C188.4,10.2 193.1,15.2 193.1,21.5 Z M187.3,21.5 C187.3,18.3 185.1,15.7 182.2,15.7 C179.3,15.7 177.1,18.3 177.1,21.5 C177.1,24.7 179.3,27.3 182.2,27.3 C185.1,27.3 187.3,24.7 187.3,21.5 Z" id="Shape" fill="#2F6BF2"></path>
                    <path d="M218,0.4 L218,32.4 L212.2,32.4 L212.2,29.9 C211,31.6 208.8,32.8 206.2,32.8 C200.5,32.8 196.2,28 196.2,21.5 C196.2,15 200.5,10.2 206.2,10.2 C208.8,10.2 211,11.4 212.2,13 L212.2,0.4 L218,0.4 Z M212.2,21.5 C212.2,18.3 209.9,15.7 207.1,15.7 C204.3,15.7 202,18.3 202,21.5 C202,24.7 204.3,27.3 207.1,27.3 C209.9,27.3 212.2,24.7 212.2,21.5 Z" id="Shape" fill="#2F6BF2"></path>
                    <path d="M23.6,12.4 C23.6,10.4 25.2,8.8 27.2,8.8 C29.2,8.8 30.8,10.4 30.8,12.4 C30.8,14.4 29.3,16 27.2,16 C25.2,16 23.6,14.5 23.6,12.4 Z" id="Path" fill="#FF223D"></path>
                </g>
                <g id="Group" transform="translate(8.300000, 39.200000)" fill="#2F6BF2">
                    <path d="M7.9,9.8 C7.4,10.5 6.5,11.1 5.2,11.1 C3,11.1 1.9,9.8 1.9,7.3 L1.9,2.1 L-1.42108547e-14,2.1 L-1.42108547e-14,0.3 L3.9,0.3 L3.9,7.4 C3.9,8.7 4.4,9.3 5.2,9.3 C5.7,9.3 6.1,9.1 6.3,8.7 L7.9,9.8 Z" id="Path"></path>
                    <polygon id="Path" points="12.1 0.3 14 0.3 13.3 3.7 12.1 3.7"></polygon>
                    <path d="M24.1,11 L24,10.1 C23.5,10.7 22.4,11.1 21.5,11.1 C19.8,11.1 18.9,10 18.9,8.7 C18.9,6.8 21.3,5.8 23.7,6.6 C23.6,5.7 23.2,5.3 22.1,5.3 C21.4,5.3 20.8,5.5 20.4,5.7 L19.7,4.3 C20.3,3.9 21.1,3.5 22.4,3.5 C24.2,3.5 25.7,4.5 25.7,7.2 L25.7,10.9 L24.1,11 L24.1,11 Z M20.8,8.7 C20.8,9.3 21.3,9.6 22,9.6 C22.7,9.6 23.5,9 23.7,8 C22.2,7.4 20.8,7.8 20.8,8.7 Z" id="Shape"></path>
                    <path d="M35.6,9.8 C35.1,10.5 34.2,11.1 32.9,11.1 C30.7,11.1 29.6,9.8 29.6,7.3 L29.6,2.1 L27.7,2.1 L27.7,0.3 L31.6,0.3 L31.6,7.4 C31.6,8.7 32.1,9.3 32.9,9.3 C33.4,9.3 33.8,9.1 34,8.7 L35.6,9.8 Z" id="Path"></path>
                    <path d="M44.2,9.2 L44.2,11 L37.9,11 L37.9,9.2 L40.1,9.2 L40.1,5.6 L38.2,5.6 L38.2,3.8 L42.1,3.8 L42.1,9.3 L44.2,9.2 L44.2,9.2 Z M39.9,1.2 C39.9,0.5 40.4,0 41.1,0 C41.8,0 42.3,0.5 42.3,1.2 C42.3,1.9 41.8,2.4 41.1,2.4 C40.4,2.4 39.9,1.9 39.9,1.2 Z" id="Shape"></path>
                    <path d="M54.2,6.7 L54.2,11 L52.3,11 L52.3,6.7 C52.3,5.5 52,5.4 51.7,5.4 C51.4,5.4 51.1,5.6 51.1,7 L51.1,11 L49.2,11 L49.2,6.7 C49.2,5.5 49,5.4 48.7,5.4 C48.4,5.4 48,5.6 48,7 L48,11 L46.1,11 L46.1,3.7 L48,3.7 L48,4.5 C48.3,3.9 48.7,3.6 49.3,3.6 C50,3.6 50.5,4.1 50.7,4.6 C51,4 51.5,3.6 52.3,3.6 C53.5,3.6 54.2,4.4 54.2,6.7 Z" id="Path"></path>
                    <path d="M62.8,8.1 L57.8,8.1 C58,8.8 58.6,9.3 59.5,9.3 C60.2,9.3 60.7,9 61.1,8.6 L62.4,9.8 C61.8,10.6 60.7,11.1 59.6,11.1 C57.3,11.1 55.9,9.4 55.9,7.3 C55.9,5.2 57.2,3.5 59.5,3.5 C60.8,3.5 62.9,4.3 62.9,7.1 C62.9,7.5 62.8,7.8 62.8,8.1 Z M57.8,6.6 L60.9,6.6 C60.8,6 60.3,5.4 59.4,5.4 C58.5,5.4 58,5.9 57.8,6.6 Z" id="Shape"></path>
                    <path d="M71.9,6.8 L71.9,10.9 L70,10.9 L70,6.8 C70,5.6 69.3,5.3 68.7,5.3 C68.1,5.3 67.4,5.8 67.4,7 L67.4,10.9 L65.3,10.9 L65.3,3.6 L67.2,3.6 L67.2,4.4 C67.5,4 68.1,3.5 69,3.5 C70.6,3.6 71.9,4.6 71.9,6.8 Z" id="Path"></path>
                    <path d="M77.8,5.5 L77.8,8 C77.8,9.4 79.3,9.5 80.2,9 L80.9,10.5 C80.4,10.8 79.8,11 78.8,11 C76.9,11 75.8,9.6 75.8,7.8 L75.8,5.4 L74.1,5.4 L74.1,3.6 L75.8,3.6 L75.8,1 L77.7,0.4 L77.7,3.6 L80.9,3.6 L80.9,5.4 L77.8,5.5 L77.8,5.5 Z" id="Path"></path>
                    <path d="M88.8,11 L88.7,10.1 C88.2,10.7 87.1,11.1 86.2,11.1 C84.5,11.1 83.6,10 83.6,8.7 C83.6,6.8 86,5.8 88.4,6.6 C88.3,5.7 87.9,5.3 86.9,5.3 C86.2,5.3 85.6,5.5 85.2,5.7 L84.5,4.3 C85.1,3.9 85.9,3.5 87.2,3.5 C89,3.5 90.5,4.5 90.5,7.2 L90.5,10.9 L88.8,11 L88.8,11 Z M85.5,8.7 C85.5,9.3 86,9.6 86.7,9.6 C87.4,9.6 88.2,9 88.4,8 C86.9,7.4 85.5,7.8 85.5,8.7 Z" id="Shape"></path>
                    <path d="M96.3,5.5 L96.3,8 C96.3,9.4 97.8,9.5 98.7,9 L99.4,10.5 C98.9,10.8 98.3,11 97.3,11 C95.4,11 94.3,9.6 94.3,7.8 L94.3,5.4 L92.6,5.4 L92.6,3.6 L94.3,3.6 L94.3,1 L96.2,0.4 L96.2,3.6 L99.4,3.6 L99.4,5.4 L96.3,5.5 L96.3,5.5 Z" id="Path"></path>
                    <path d="M109,9.2 L109,11 L102.7,11 L102.7,9.2 L104.9,9.2 L104.9,5.6 L103,5.6 L103,3.8 L106.9,3.8 L106.9,9.3 L109,9.2 L109,9.2 Z M104.6,1.2 C104.6,0.5 105.1,0 105.8,0 C106.5,0 107,0.5 107,1.2 C107,1.9 106.5,2.4 105.8,2.4 C105.1,2.5 104.6,1.9 104.6,1.2 Z" id="Shape"></path>
                    <path d="M118.5,7.3 C118.5,9.4 116.9,11.1 114.9,11.1 C112.7,11.1 111.3,9.4 111.3,7.3 C111.3,5.2 112.7,3.5 114.9,3.5 C116.9,3.6 118.5,5.2 118.5,7.3 Z M116.5,7.3 C116.5,6.2 115.8,5.4 114.8,5.4 C113.8,5.4 113.1,6.3 113.1,7.3 C113.1,8.3 113.8,9.2 114.8,9.2 C115.8,9.3 116.5,8.4 116.5,7.3 Z" id="Shape"></path>
                    <path d="M127.3,6.8 L127.3,10.9 L125.4,10.9 L125.4,6.8 C125.4,5.6 124.7,5.3 124.1,5.3 C123.5,5.3 122.8,5.8 122.8,7 L122.8,10.9 L120.9,10.9 L120.9,3.6 L122.8,3.6 L122.8,4.4 C123.1,4 123.7,3.5 124.6,3.5 C126.1,3.6 127.3,4.6 127.3,6.8 Z" id="Path"></path>
                    <path d="M146,8.1 L141,8.1 C141.2,8.8 141.8,9.3 142.7,9.3 C143.4,9.3 143.9,9 144.3,8.6 L145.6,9.8 C145,10.6 143.9,11.1 142.8,11.1 C140.5,11.1 139.1,9.4 139.1,7.3 C139.1,5.2 140.4,3.5 142.7,3.5 C144,3.5 146.1,4.3 146.1,7.1 C146.1,7.5 146,7.8 146,8.1 Z M141,6.6 L144.1,6.6 C144,6 143.5,5.4 142.6,5.4 C141.7,5.4 141.2,5.9 141,6.6 Z" id="Shape"></path>
                    <path d="M155.1,6.8 L155.1,10.9 L153.2,10.9 L153.2,6.8 C153.2,5.6 152.5,5.3 151.9,5.3 C151.3,5.3 150.6,5.8 150.6,7 L150.6,10.9 L148.7,10.9 L148.7,3.6 L150.6,3.6 L150.6,4.4 C150.9,4 151.5,3.5 152.4,3.5 C153.8,3.6 155.1,4.6 155.1,6.8 Z" id="Path"></path>
                    <path d="M164.6,12.2 C164.6,13.9 163.1,15 161,15 C158.7,15 157.4,13.9 157.4,12.2 C157.4,11.2 157.9,10.5 158.5,10.1 C158.3,9.8 158.1,8.8 158.7,8 C158.2,7.5 158,6.9 158,6.2 C158,4.7 159.2,3.5 161,3.5 C161.6,3.5 162.2,3.7 162.7,3.9 L163.7,3 L164.8,4.2 L163.8,5.1 C164,5.4 164,5.8 164,6.1 C164,7.6 162.7,8.7 161,8.7 C160.7,8.7 160.4,8.7 160.2,8.6 C160.1,8.9 160.2,9.3 161.3,9.4 C163.2,9.6 164.6,10.4 164.6,12.2 Z M162.6,12.2 C162.6,11.6 162.1,11.3 161.1,11.3 C160.6,11.3 160,11.3 159.8,11.2 C159.4,11.4 159.2,11.7 159.2,12.1 C159.2,12.7 159.7,13.2 160.9,13.2 C162,13.2 162.6,12.7 162.6,12.2 Z M159.8,6.2 C159.8,6.7 160.3,7.1 160.9,7.1 C161.5,7.1 162,6.7 162,6.2 C162,5.7 161.5,5.3 160.9,5.3 C160.3,5.4 159.8,5.8 159.8,6.2 Z" id="Shape"></path>
                    <path d="M172,11 L171.9,10.1 C171.4,10.7 170.3,11.1 169.4,11.1 C167.7,11.1 166.8,10 166.8,8.7 C166.8,6.8 169.2,5.8 171.6,6.6 C171.5,5.7 171.1,5.3 170.1,5.3 C169.4,5.3 168.8,5.5 168.4,5.7 L167.7,4.3 C168.3,3.9 169.1,3.5 170.4,3.5 C172.2,3.5 173.7,4.5 173.7,7.2 L173.7,10.9 L172,11 L172,11 Z M168.7,8.7 C168.7,9.3 169.2,9.6 169.9,9.6 C170.6,9.6 171.4,9 171.6,8 C170.1,7.4 168.7,7.8 168.7,8.7 Z" id="Shape"></path>
                    <path d="M183,12.2 C183,13.9 181.5,15 179.4,15 C177.1,15 175.8,13.9 175.8,12.2 C175.8,11.2 176.3,10.5 176.9,10.1 C176.7,9.8 176.5,8.8 177.1,8 C176.6,7.5 176.4,6.9 176.4,6.2 C176.4,4.7 177.6,3.5 179.4,3.5 C180,3.5 180.6,3.7 181.1,3.9 L182.1,3 L183.2,4.2 L182.2,5.1 C182.4,5.4 182.4,5.8 182.4,6.1 C182.4,7.6 181.1,8.7 179.4,8.7 C179.1,8.7 178.8,8.7 178.6,8.6 C178.5,8.9 178.6,9.3 179.7,9.4 C181.7,9.6 183,10.4 183,12.2 Z M181.1,12.2 C181.1,11.6 180.6,11.3 179.6,11.3 C179.1,11.3 178.5,11.3 178.3,11.2 C177.9,11.4 177.7,11.7 177.7,12.1 C177.7,12.7 178.2,13.2 179.4,13.2 C180.5,13.2 181.1,12.7 181.1,12.2 Z M178.3,6.2 C178.3,6.7 178.8,7.1 179.4,7.1 C180,7.1 180.5,6.7 180.5,6.2 C180.5,5.7 180,5.3 179.4,5.3 C178.8,5.3 178.3,5.8 178.3,6.2 Z" id="Shape"></path>
                    <path d="M192.2,8.1 L187.2,8.1 C187.4,8.8 188,9.3 188.9,9.3 C189.6,9.3 190.1,9 190.5,8.6 L191.8,9.8 C191.2,10.6 190.1,11.1 189,11.1 C186.7,11.1 185.3,9.4 185.3,7.3 C185.3,5.2 186.6,3.5 188.9,3.5 C190.2,3.5 192.3,4.3 192.3,7.1 C192.3,7.5 192.3,7.8 192.2,8.1 Z M187.2,6.6 L190.3,6.6 C190.2,6 189.7,5.4 188.8,5.4 C187.9,5.4 187.4,5.9 187.2,6.6 Z M189,2.7 L187.8,2.7 L188.8,0.3 L190.5,0.3 L189,2.7 Z" id="Shape"></path>
                    <path d="M201.5,8.1 L196.5,8.1 C196.7,8.8 197.3,9.3 198.2,9.3 C198.9,9.3 199.4,9 199.8,8.6 L201.1,9.8 C200.5,10.6 199.4,11.1 198.3,11.1 C196,11.1 194.6,9.4 194.6,7.3 C194.6,5.2 195.9,3.5 198.2,3.5 C199.5,3.5 201.6,4.3 201.6,7.1 C201.5,7.5 201.5,7.8 201.5,8.1 Z M196.5,6.6 L199.6,6.6 C199.5,6 199,5.4 198.1,5.4 C197.2,5.4 196.7,5.9 196.5,6.6 Z" id="Shape"></path>
                </g>
            </g>
        </g>
    </g>
</svg>