<?xml version="1.0" encoding="utf-8"?>
<!-- Generator: Adobe Illustrator 27.2.0, SVG Export Plug-In . SVG Version: 6.00 Build 0)  -->
<svg version="1.1" id="Calque_1" xmlns="http://www.w3.org/2000/svg" xmlns:xlink="http://www.w3.org/1999/xlink" x="0px" y="0px"
	 viewBox="0 0 1080 1080" style="enable-background:new 0 0 1080 1080;" xml:space="preserve">
<style type="text/css">
	.st0{fill:#FFFFFF;stroke:#FFFFFF;stroke-miterlimit:10;}
</style>
<path class="st0" d="M542.5,662.8c-40.2,0-80.4,0-120.6,0c-19.2,0-36-14-39.3-32.9c-0.5-2.6-0.7-5.3-0.7-8c0-54,0-108,0-162
	c0-19.4,13.2-35.8,32.2-39.9c2.4-0.5,5-0.8,7.5-0.8c80.6,0,161.1,0,241.7,0c18.5,0,35.2,13.4,38.9,31.6c0.7,3.3,1,6.6,1,10
	c0.1,53.5,0,106.9,0.1,160.4c0,11.4-3.6,21.3-11.6,29.5c-6.6,6.8-14.6,10.8-24,11.9c-1.7,0.2-3.4,0.3-5.1,0.3
	C622.5,662.8,582.5,662.8,542.5,662.8z M581.6,540.8c-0.4,0.3-0.7,0.5-1,0.8c-10.5,9.1-21,18.1-31.4,27.2c-4.1,3.5-9.5,3.5-13.5,0
	c-8.6-7.4-17.1-14.9-25.7-22.3c-2.2-1.9-4.4-3.8-6.7-5.7c-29,33.5-58,67-86.9,100.4c0,0.2,0.1,0.3,0.1,0.5c2.2,0.3,4.4,0.8,6.6,0.8
	c79.6,0,159.2,0,238.7,0c0.3,0,0.6,0,1,0c2-0.1,3.9-0.4,5.8-1.2C639.5,607.7,610.6,574.3,581.6,540.8z M542.5,547.9
	c41.4-35.9,82.7-71.7,124-107.4c0-0.1,0-0.2-0.1-0.4c-1.5-0.2-3-0.5-4.4-0.5c-71.3,0-142.6,0-213.9,0c-8.5,0-17,0-25.5,0
	c-1.3,0-2.7,0.4-4.4,0.6C459.8,476.2,501.1,512,542.5,547.9z M402.5,625.8c0.1,0,0.3,0,0.4,0.1c28.4-32.8,56.7-65.5,85.2-98.4
	c-28.3-24.5-56.6-49-84.8-73.5c-0.2,0-0.3,0.1-0.5,0.1c-0.3,2.1-0.8,4.1-0.8,6.2c0,53.6,0,107.2,0,160.9
	C401.9,622.7,402.3,624.3,402.5,625.8z M682.2,454.2c-0.2,0-0.3-0.1-0.5-0.1c-28.2,24.5-56.5,48.9-84.8,73.5
	c28.4,32.9,56.8,65.6,85.5,98.7c0.3-1.8,0.7-3.3,0.7-4.7c0-53.7,0-107.4,0-161.1C683,458.3,682.5,456.2,682.2,454.2z"/>
</svg>
